<svg width="24" height="18" viewBox="0 0 24 18" fill="none" xmlns="http://www.w3.org/2000/svg">
<path d="M21 6C21 5.73478 20.8946 5.48043 20.7071 5.29289C20.5196 5.10536 20.2652 5 20 5C19.7348 5 19.4804 5.10536 19.2929 5.29289C19.1054 5.48043 19 5.73478 19 6V8H17C16.7348 8 16.4804 8.10536 16.2929 8.29289C16.1054 8.48043 16 8.73478 16 9C16 9.26522 16.1054 9.51957 16.2929 9.70711C16.4804 9.89464 16.7348 10 17 10H19V12C19 12.2652 19.1054 12.5196 19.2929 12.7071C19.4804 12.8946 19.7348 13 20 13C20.2652 13 20.5196 12.8946 20.7071 12.7071C20.8946 12.5196 21 12.2652 21 12V10H23C23.2652 10 23.5196 9.89464 23.7071 9.70711C23.8946 9.51957 24 9.26522 24 9C24 8.73478 23.8946 8.48043 23.7071 8.29289C23.5196 8.10536 23.2652 8 23 8H21V6ZM8 2C6.93913 2 5.92172 2.42143 5.17157 3.17157C4.42143 3.92172 4 4.93913 4 6C4 7.06087 4.42143 8.07828 5.17157 8.82843C5.92172 9.57857 6.93913 10 8 10C9.06087 10 10.0783 9.57857 10.8284 8.82843C11.5786 8.07828 12 7.06087 12 6C12 4.93913 11.5786 3.92172 10.8284 3.17157C10.0783 2.42143 9.06087 2 8 2ZM2 6C2 5.21207 2.15519 4.43185 2.45672 3.7039C2.75825 2.97595 3.20021 2.31451 3.75736 1.75736C4.31451 1.20021 4.97595 0.758251 5.7039 0.456723C6.43185 0.155194 7.21207 0 8 0C8.78793 0 9.56815 0.155194 10.2961 0.456723C11.0241 0.758251 11.6855 1.20021 12.2426 1.75736C12.7998 2.31451 13.2417 2.97595 13.5433 3.7039C13.8448 4.43185 14 5.21207 14 6C14 7.5913 13.3679 9.11742 12.2426 10.2426C11.1174 11.3679 9.5913 12 8 12C6.4087 12 4.88258 11.3679 3.75736 10.2426C2.63214 9.11742 2 7.5913 2 6Z" fill="#373A40"/>
<path d="M2.124 16H13.876C13.329 13.803 11.016 12 8 12C4.984 12 2.671 13.803 2.124 16ZM0 17C0 12.995 3.732 10 8 10C12.268 10 16 12.995 16 17C16 17.2652 15.8946 17.5196 15.7071 17.7071C15.5196 17.8946 15.2652 18 15 18H1C0.734784 18 0.48043 17.8946 0.292893 17.7071C0.105357 17.5196 0 17.2652 0 17Z" fill="#373A40"/>
</svg>
