<svg width="16" height="15" viewBox="0 0 16 15" fill="none" xmlns="http://www.w3.org/2000/svg">
<path d="M15.1811 4.99795H14.0492L11.0903 0L9.70652 0.763234L12.2134 4.99795H3.8007L6.30842 0.763234L4.92383 0L1.96494 4.99795H0.833042C0.710523 4.99808 0.589681 5.02544 0.479883 5.07791C0.370084 5.13038 0.27428 5.20656 0.199896 5.30053C0.125511 5.39449 0.0745455 5.50373 0.0509489 5.61978C0.0273523 5.73582 0.031759 5.85555 0.0638271 5.96969L2.29495 13.8667C2.3877 14.192 2.58837 14.479 2.86624 14.6837C3.14411 14.8884 3.48383 14.9995 3.83338 15H12.1816C12.8974 15 13.5303 14.5345 13.72 13.8652L15.9511 5.96892C15.9836 5.85474 15.9882 5.73487 15.9647 5.61867C15.9412 5.50247 15.8902 5.39309 15.8156 5.29908C15.7411 5.20506 15.645 5.12896 15.5349 5.07673C15.4249 5.02449 15.3038 4.99753 15.1811 4.99795ZM12.1808 13.4612V14.2306V13.4612H3.83338L1.87726 6.53673H14.1369L12.1808 13.4612Z" fill="white"/>
<path d="M5.61572 8.0755H7.20995V11.9224H5.61572V8.0755ZM8.80418 8.0755H10.3984V11.9224H8.80418V8.0755Z" fill="white"/>
</svg>
