<svg width="22" height="22" viewBox="0 0 22 22" fill="none" xmlns="http://www.w3.org/2000/svg">
<path d="M1 11C1 16.523 5.477 21 11 21C16.523 21 21 16.523 21 11C21 5.477 16.523 1 11 1C5.477 1 1 5.477 1 11Z" stroke="#373A40" stroke-width="1.5" stroke-linecap="round" stroke-linejoin="round"/>
<path d="M12 1.05C12 1.05 15 5 15 11C15 17 12 20.95 12 20.95" stroke="#373A40" stroke-width="1.5" stroke-linecap="round" stroke-linejoin="round"/>
<path d="M10 20.95C10 20.95 7 17 7 11C7 5 10 1.05 10 1.05" stroke="#373A40" stroke-width="1.5" stroke-linecap="round" stroke-linejoin="round"/>
<path d="M1.62988 14.5H20.3699" stroke="#373A40" stroke-width="1.5" stroke-linecap="round" stroke-linejoin="round"/>
<path d="M1.62988 7.5H20.3699" stroke="#373A40" stroke-width="1.5" stroke-linecap="round" stroke-linejoin="round"/>
</svg>
