<svg width="14" height="15" viewBox="0 0 14 15" fill="none" xmlns="http://www.w3.org/2000/svg">
<path d="M1.49999 15H11.9999C12.8271 15 13.4999 14.3273 13.4999 13.5V6.75008C13.5 6.65158 13.4806 6.55403 13.4429 6.46304C13.4052 6.37204 13.3499 6.28939 13.2801 6.21984L7.28018 0.219899C7.21059 0.15019 7.12793 0.0948872 7.03695 0.0571545C6.94596 0.0194219 6.84843 0 6.74993 0C6.65143 0 6.5539 0.0194219 6.46292 0.0571545C6.37193 0.0948872 6.28928 0.15019 6.21969 0.219899L0.219748 6.21984C0.15 6.28939 0.0946819 6.37204 0.0569707 6.46304C0.0192594 6.55403 -0.000101355 6.65158 3.99009e-07 6.75008V13.5C3.99009e-07 14.3273 0.672743 15 1.49999 15ZM5.24995 13.5V9.75005H8.24992V13.5H5.24995ZM1.49999 7.06058L6.74993 1.81063L11.9999 7.06058L12.0006 13.5H9.7499V9.75005C9.7499 8.92281 9.07716 8.25007 8.24992 8.25007H5.24995C4.42271 8.25007 3.74996 8.92281 3.74996 9.75005V13.5H1.49999V7.06058Z" fill="#686D76"/>
</svg>
