<svg width="14" height="10" viewBox="0 0 14 10" fill="none" xmlns="http://www.w3.org/2000/svg">
<path d="M11.7778 3.33333C11.7778 3.18599 11.7193 3.04468 11.6151 2.9405C11.5109 2.83631 11.3696 2.77778 11.2222 2.77778C11.0749 2.77778 10.9336 2.83631 10.8294 2.9405C10.7252 3.04468 10.6667 3.18599 10.6667 3.33333V4.44444H9.55556C9.40822 4.44444 9.26691 4.50298 9.16272 4.60716C9.05854 4.71135 9.00001 4.85266 9.00001 5C9.00001 5.14734 9.05854 5.28865 9.16272 5.39284C9.26691 5.49702 9.40822 5.55556 9.55556 5.55556H10.6667V6.66667C10.6667 6.81401 10.7252 6.95532 10.8294 7.0595C10.9336 7.16369 11.0749 7.22222 11.2222 7.22222C11.3696 7.22222 11.5109 7.16369 11.6151 7.0595C11.7193 6.95532 11.7778 6.81401 11.7778 6.66667V5.55556H12.8889C13.0362 5.55556 13.1775 5.49702 13.2817 5.39284C13.3859 5.28865 13.4445 5.14734 13.4445 5C13.4445 4.85266 13.3859 4.71135 13.2817 4.60716C13.1775 4.50298 13.0362 4.44444 12.8889 4.44444H11.7778V3.33333ZM4.55556 1.11111C3.96619 1.11111 3.40096 1.34524 2.98421 1.76198C2.56747 2.17873 2.33334 2.74396 2.33334 3.33333C2.33334 3.9227 2.56747 4.48793 2.98421 4.90468C3.40096 5.32143 3.96619 5.55556 4.55556 5.55556C5.14493 5.55556 5.71016 5.32143 6.12691 4.90468C6.54366 4.48793 6.77778 3.9227 6.77778 3.33333C6.77778 2.74396 6.54366 2.17873 6.12691 1.76198C5.71016 1.34524 5.14493 1.11111 4.55556 1.11111ZM1.22223 3.33333C1.22223 2.89559 1.30845 2.46214 1.47596 2.05772C1.64348 1.6533 1.88901 1.28584 2.19854 0.976311C2.50807 0.666782 2.87553 0.421251 3.27995 0.253735C3.68437 0.0862192 4.11782 0 4.55556 0C4.9933 0 5.42676 0.0862192 5.83117 0.253735C6.23559 0.421251 6.60306 0.666782 6.91259 0.976311C7.22211 1.28584 7.46765 1.6533 7.63516 2.05772C7.80268 2.46214 7.8889 2.89559 7.8889 3.33333C7.8889 4.21739 7.53771 5.06523 6.91259 5.69036C6.28746 6.31548 5.43962 6.66667 4.55556 6.66667C3.67151 6.66667 2.82366 6.31548 2.19854 5.69036C1.57342 5.06523 1.22223 4.21739 1.22223 3.33333Z" fill="#686D76"/>
<path d="M1.29108 8.88889H7.81997C7.51608 7.66833 6.23108 6.66667 4.55553 6.66667C2.87997 6.66667 1.59497 7.66833 1.29108 8.88889ZM0.111084 9.44445C0.111084 7.21945 2.18442 5.55556 4.55553 5.55556C6.92664 5.55556 8.99997 7.21945 8.99997 9.44445C8.99997 9.59179 8.94144 9.7331 8.83725 9.83728C8.73307 9.94147 8.59176 10 8.44442 10H0.66664C0.519297 10 0.377989 9.94147 0.273802 9.83728C0.169616 9.7331 0.111084 9.59179 0.111084 9.44445Z" fill="#686D76"/>
</svg>
