<svg width="16" height="19" viewBox="0 0 16 19" fill="none" xmlns="http://www.w3.org/2000/svg">
<path d="M8 2.86282C6.93913 2.86282 5.92172 3.28425 5.17157 4.0344C4.42143 4.78454 4 5.80196 4 6.86282C4 7.92369 4.42143 8.9411 5.17157 9.69125C5.92172 10.4414 6.93913 10.8628 8 10.8628C9.06087 10.8628 10.0783 10.4414 10.8284 9.69125C11.5786 8.9411 12 7.92369 12 6.86282C12 5.80196 11.5786 4.78454 10.8284 4.0344C10.0783 3.28425 9.06087 2.86282 8 2.86282ZM2 6.86282C2 5.27152 2.63214 3.7454 3.75736 2.62018C4.88258 1.49496 6.4087 0.862823 8 0.862823C9.5913 0.862823 11.1174 1.49496 12.2426 2.62018C13.3679 3.7454 14 5.27152 14 6.86282C14 8.45412 13.3679 9.98025 12.2426 11.1055C11.1174 12.2307 9.5913 12.8628 8 12.8628C6.4087 12.8628 4.88258 12.2307 3.75736 11.1055C2.63214 9.98025 2 8.45412 2 6.86282Z" fill="#373A40"/>
<path d="M2.124 16.8628H13.876C13.329 14.6658 11.016 12.8628 8 12.8628C4.984 12.8628 2.671 14.6658 2.124 16.8628ZM0 17.8628C0 13.8578 3.732 10.8628 8 10.8628C12.268 10.8628 16 13.8578 16 17.8628C16 18.128 15.8946 18.3824 15.7071 18.5699C15.5196 18.7575 15.2652 18.8628 15 18.8628H1C0.734784 18.8628 0.48043 18.7575 0.292893 18.5699C0.105357 18.3824 0 18.128 0 17.8628Z" fill="#373A40"/>
</svg>
