<svg width="9" height="15" viewBox="0 0 9 15" fill="none" xmlns="http://www.w3.org/2000/svg">
<path d="M8.29144 0.293557C8.19862 0.200504 8.08836 0.126676 7.96696 0.0763025C7.84557 0.0259291 7.71543 0 7.584 0C7.45256 0 7.32242 0.0259291 7.20103 0.0763025C7.07963 0.126676 6.96937 0.200504 6.87655 0.293557L0.233772 6.93634C0.159667 7.01029 0.100875 7.09813 0.0607616 7.19483C0.0206479 7.29154 0 7.3952 0 7.49989C0 7.60459 0.0206479 7.70825 0.0607616 7.80495C0.100875 7.90166 0.159667 7.9895 0.233772 8.06345L6.87655 14.7062C7.26824 15.0979 7.89975 15.0979 8.29144 14.7062C8.68313 14.3145 8.68313 13.683 8.29144 13.2913L2.50399 7.4959L8.29943 1.70045C8.68313 1.31675 8.68313 0.677255 8.29144 0.293557Z" fill="#373A40"/>
</svg>
