<svg width="18" height="20" viewBox="0 0 18 20" fill="none" xmlns="http://www.w3.org/2000/svg">
<path d="M17.0803 16.3216C16.6344 15.1989 15.9872 14.1792 15.1749 13.3191C14.3651 12.4566 13.4057 11.7689 12.3499 11.294C12.3404 11.2889 12.3309 11.2864 12.3215 11.2814C13.7943 10.1508 14.7517 8.30904 14.7517 6.23116C14.7517 2.78894 12.1276 0 8.88889 0C5.65014 0 3.02604 2.78894 3.02604 6.23116C3.02604 8.30904 3.98348 10.1508 5.45629 11.2839C5.44683 11.2889 5.43738 11.2915 5.42792 11.2965C4.36882 11.7714 3.41848 12.4523 2.60288 13.3216C1.79132 14.1823 1.14427 15.2019 0.697454 16.3241C0.258502 17.4227 0.0217657 18.6006 5.91154e-05 19.794C-0.000571862 19.8208 0.00385371 19.8475 0.0130752 19.8724C0.0222966 19.8974 0.0361274 19.9202 0.0537524 19.9394C0.0713774 19.9586 0.0924401 19.9738 0.115699 19.9842C0.138959 19.9946 0.163944 20 0.189183 20H1.60761C1.71163 20 1.79437 19.9121 1.79674 19.804C1.84402 17.8643 2.57687 16.0477 3.87237 14.6709C5.21279 13.2462 6.99292 12.4623 8.88889 12.4623C10.7849 12.4623 12.565 13.2462 13.9054 14.6709C15.2009 16.0477 15.9338 17.8643 15.981 19.804C15.9834 19.9146 16.0661 20 16.1702 20H17.5886C17.6138 20 17.6388 19.9946 17.6621 19.9842C17.6853 19.9738 17.7064 19.9586 17.724 19.9394C17.7417 19.9202 17.7555 19.8974 17.7647 19.8724C17.7739 19.8475 17.7784 19.8208 17.7777 19.794C17.7541 18.593 17.52 17.4246 17.0803 16.3216ZM8.88889 10.5528C7.80379 10.5528 6.78252 10.103 6.0142 9.28643C5.24589 8.46985 4.82272 7.38442 4.82272 6.23116C4.82272 5.07789 5.24589 3.99246 6.0142 3.17588C6.78252 2.3593 7.80379 1.90955 8.88889 1.90955C9.97399 1.90955 10.9953 2.3593 11.7636 3.17588C12.5319 3.99246 12.9551 5.07789 12.9551 6.23116C12.9551 7.38442 12.5319 8.46985 11.7636 9.28643C10.9953 10.103 9.97399 10.5528 8.88889 10.5528Z" fill="#686D76"/>
</svg>
