<svg width="21" height="20" viewBox="0 0 21 20" fill="none" xmlns="http://www.w3.org/2000/svg">
<path d="M18.9999 6.86282H17.5799L13.8679 0.366821L12.1319 1.35882L15.2769 6.86282H4.7229L7.8689 1.35882L6.1319 0.366821L2.4199 6.86282H0.999896C0.846193 6.86299 0.694593 6.89855 0.556848 6.96675C0.419104 7.03495 0.298915 7.13396 0.205598 7.25609C0.112281 7.37822 0.0483428 7.52021 0.0187403 7.67103C-0.0108622 7.82186 -0.00533389 7.97748 0.0348963 8.12582L2.8339 18.3898C2.95025 18.8126 3.20201 19.1856 3.55059 19.4517C3.89918 19.7177 4.32538 19.8621 4.7639 19.8628H15.2369C16.1349 19.8628 16.9289 19.2578 17.1669 18.3878L19.9659 8.12482C20.0066 7.97642 20.0124 7.82062 19.983 7.66959C19.9535 7.51856 19.8895 7.3764 19.7959 7.25421C19.7024 7.13202 19.5819 7.03311 19.4438 6.96521C19.3057 6.89732 19.1538 6.86227 18.9999 6.86282ZM15.2359 17.8628V18.8628V17.8628H4.7639L2.3099 8.86282H17.6899L15.2359 17.8628Z" fill="#373A40"/>
</svg>
