<svg width="8" height="8" viewBox="0 0 8 8" fill="none" xmlns="http://www.w3.org/2000/svg">
<path d="M7.30915 2.49897H6.76289L5.3349 0L4.66707 0.381617L5.87693 2.49897H1.81687L3.02712 0.381617L2.35891 0L0.93092 2.49897H0.384654C0.325526 2.49904 0.267206 2.51272 0.214216 2.53896C0.161227 2.56519 0.114991 2.60328 0.0790923 2.65026C0.0431938 2.69725 0.0185972 2.75187 0.00720929 2.80989C-0.00417862 2.86791 -0.00205192 2.92778 0.0134244 2.98484L1.09018 6.93335C1.13494 7.09599 1.23179 7.23948 1.36589 7.34183C1.49999 7.44418 1.66395 7.49974 1.83264 7.5H5.86155C6.207 7.5 6.51245 7.26726 6.60401 6.93258L7.68077 2.98446C7.69643 2.92737 7.69867 2.86743 7.68733 2.80933C7.67599 2.75123 7.65136 2.69654 7.61538 2.64954C7.5794 2.60253 7.53304 2.56448 7.47991 2.53836C7.42679 2.51224 7.36835 2.49876 7.30915 2.49897ZM5.86116 6.73061V7.11531V6.73061H1.83264L0.888604 3.26836H6.8052L5.86116 6.73061Z" fill="#FF0000"/>
<path d="M2.69281 4.03775H3.4622V5.96122H2.69281V4.03775ZM4.23159 4.03775H5.00098V5.96122H4.23159V4.03775Z" fill="#FF0000"/>
</svg>
